<?xml version="1.0" encoding="UTF-8" standalone="no"?>
<svg
   xmlns:dc="http://purl.org/dc/elements/1.1/"
   xmlns:cc="http://creativecommons.org/ns#"
   xmlns:rdf="http://www.w3.org/1999/02/22-rdf-syntax-ns#"
   xmlns:svg="http://www.w3.org/2000/svg"
   xmlns="http://www.w3.org/2000/svg"
   xmlns:sodipodi="http://sodipodi.sourceforge.net/DTD/sodipodi-0.dtd"
   xmlns:inkscape="http://www.inkscape.org/namespaces/inkscape"
   id="SVGRoot"
   version="1.1"
   viewBox="0 0 250 250"
   height="250"
   width="250"
   sodipodi:docname="RollIcon.svg"
   inkscape:version="0.92.3 (2405546, 2018-03-11)">
  <sodipodi:namedview
     pagecolor="#ffffff"
     bordercolor="#666666"
     borderopacity="1"
     objecttolerance="10"
     gridtolerance="10"
     guidetolerance="10"
     inkscape:pageopacity="0"
     inkscape:pageshadow="2"
     inkscape:window-width="1366"
     inkscape:window-height="705"
     id="namedview13"
     showgrid="false"
     inkscape:zoom="1.3350176"
     inkscape:cx="-8.0781893"
     inkscape:cy="85.237592"
     inkscape:window-x="-8"
     inkscape:window-y="-8"
     inkscape:window-maximized="1"
     inkscape:current-layer="SVGRoot">
    <inkscape:grid
       type="xygrid"
       id="grid824" />
  </sodipodi:namedview>
  <defs
     id="defs3745" />
  <metadata
     id="metadata3748">
    <rdf:RDF>
      <cc:Work
         rdf:about="">
        <dc:format>image/svg+xml</dc:format>
        <dc:type
           rdf:resource="http://purl.org/dc/dcmitype/StillImage" />
        <dc:title />
      </cc:Work>
    </rdf:RDF>
  </metadata>
  <ellipse
     style="fill:none;fill-opacity:1;stroke:#fff7ff;stroke-width:1;stroke-linecap:round;stroke-linejoin:round;stroke-miterlimit:4;stroke-dasharray:none;stroke-opacity:1"
     id="path820"
     cx="125.00001"
     cy="125"
     rx="121.87368"
     ry="121.87367"
     inkscape:export-filename="C:\Users\ondra\Desktop\RollIcon.png"
     inkscape:export-xdpi="96"
     inkscape:export-ydpi="96" />
  <rect
     style="fill:none;fill-opacity:1;stroke:#fff7ff;stroke-width:3;stroke-linecap:round;stroke-linejoin:round;stroke-miterlimit:4;stroke-dasharray:none;stroke-opacity:1"
     id="rect822"
     width="89.999992"
     height="170"
     x="80"
     y="40"
     inkscape:export-filename="C:\Users\ondra\Desktop\RollIcon.png"
     inkscape:export-xdpi="96"
     inkscape:export-ydpi="96" />
  <path
     style="fill:none;stroke:#fff7ff;stroke-width:3;stroke-linecap:butt;stroke-linejoin:miter;stroke-opacity:1;stroke-miterlimit:4;stroke-dasharray:none"
     d="m 60,120 c 0.973506,-0.11179 2.808732,-1.30887 2.920519,-0.33536 C 63.032305,120.63815 60.543553,119.18467 60,120 c -0.76912,1.15368 0.101352,2.78376 -0.0757,4.15896 -0.257578,2.00069 -1.636389,3.41106 -2.247162,5.24338 -0.07896,0.23687 0.07896,0.51218 0,0.74905 -0.176554,0.52966 -0.5725,0.96845 -0.749054,1.49811 -0.07896,0.23687 0.111663,0.52573 0,0.74905 -0.157914,0.31583 -0.637391,0.41407 -0.749053,0.74906 -0.157915,0.47374 0.157914,1.02436 0,1.49811 -0.111663,0.33498 -0.637392,0.41406 -0.749054,0.74905 -0.224716,0.67415 0.224716,1.57301 0,2.24716 -0.176554,0.52966 -0.5725,0.96845 -0.749054,1.49811 -0.07896,0.23687 0,0.49937 0,0.74905 0,0.49937 0,0.99874 0,1.49811 0,0.99874 0,1.99748 0,2.99622 0,1.74779 0,3.49558 0,5.24337 0,0.49937 0,0.99874 0,1.49811 0,0.24968 -0.07896,0.51218 0,0.74905 0.176554,0.52966 0.613643,0.95647 0.749054,1.49811 0.121115,0.48446 -0.157915,1.02436 0,1.49811 0.111662,0.33499 0.637391,0.41406 0.749054,0.74905 0.157914,0.47375 -0.157915,1.02437 0,1.49811 0.111662,0.33499 0.553185,0.45525 0.749053,0.74905 0.619392,0.92909 0.878717,2.06713 1.498108,2.99622 0.195869,0.2938 0.553185,0.45525 0.749054,0.74905 0.309695,0.46455 0.439358,1.03357 0.749054,1.49811 0.391737,0.58761 1.10637,0.9105 1.498107,1.49811 0.309696,0.46454 0.354268,1.10332 0.749054,1.49811 0.789572,0.78957 2.102916,0.82813 2.996215,1.4981 0.564972,0.42373 0.933136,1.07438 1.498108,1.49811 0.446649,0.33499 1.051458,0.41407 1.498107,0.74905 0.564972,0.42373 0.933136,1.07438 1.498108,1.49811 1.318335,0.98875 3.175988,1.25841 4.494323,2.24716 0.564971,0.42373 0.933135,1.07438 1.498107,1.49811 0.44665,0.33499 0.998739,0.49937 1.498108,0.74905 0.499369,0.24969 0.956465,0.61365 1.498107,0.74906 0.48446,0.12111 1.008436,-0.0979 1.498108,0 2.484299,0.49686 1.747792,0.69912 3.745269,1.49811 0.733099,0.29324 1.514062,0.45581 2.247161,0.74905 1.036759,0.4147 1.959457,1.0834 2.996215,1.49811 0.7331,0.29324 1.514063,0.45581 2.247162,0.74905 0.518379,0.20735 0.956465,0.61364 1.498107,0.74905 0.48446,0.12112 1.008436,-0.0979 1.498108,0 0.774239,0.15485 1.514062,0.45582 2.247161,0.74906 0.51838,0.20735 0.950638,0.63956 1.498108,0.74905 0.734508,0.1469 1.508299,-0.12314 2.247167,0 0.77883,0.12981 1.46833,0.61925 2.24716,0.74906 0.73886,0.12314 1.49811,0 2.24716,0 0.74905,0 1.49811,0 2.24716,0 0.99874,0 2.00752,-0.14125 2.99622,0 0.78163,0.11166 1.46368,0.65112 2.24716,0.74905 1.23878,0.15485 2.49685,0 3.74527,0 0.99874,0 1.99747,0 2.99621,0 3.99496,0 7.98991,0 11.98486,0 2.49685,0 4.9937,0 7.49054,0 1.49811,0 3.00365,0.14907 4.49432,0 1.02437,-0.10244 1.99126,-0.52573 2.99622,-0.74905 8.87582,-1.97241 -1.46282,0.73729 7.49054,-2.24717 1.95329,-0.65109 4.06457,-0.77516 5.99243,-1.4981 1.04553,-0.39208 1.95069,-1.10604 2.99621,-1.49811 0.96393,-0.36147 2.00635,-0.46624 2.99622,-0.74905 0.75919,-0.21692 1.49811,-0.49937 2.24716,-0.74906 0.74905,-0.24968 1.54095,-0.39594 2.24716,-0.74905 1.61042,-0.80521 2.88391,-2.19101 4.49432,-2.99622 0.70622,-0.3531 1.57011,-0.34282 2.24717,-0.74905 0.60557,-0.36335 0.93313,-1.07438 1.4981,-1.49811 0.44665,-0.33499 1.01936,-0.4618 1.49811,-0.74905 0.77196,-0.46318 1.4752,-1.03493 2.24716,-1.49811 0.47875,-0.28725 1.05146,-0.41407 1.49811,-0.74905 0.56497,-0.42373 0.99874,-0.99874 1.49811,-1.49811 0.99874,-0.99874 1.99747,-1.99748 2.99621,-2.99622 0.99874,-0.99873 2.11388,-1.89329 2.99622,-2.99621 2.20871,-2.7609 0.84687,-1.41145 2.24716,-3.74527 0.46317,-0.77196 1.0955,-1.44195 1.49811,-2.24716 0.3531,-0.70622 0.49937,-1.49811 0.74905,-2.24716 0.24968,-0.74906 0.49937,-1.49811 0.74905,-2.24716 0.24969,-0.74906 0.6374,-1.46553 0.74906,-2.24717 0.14124,-0.9887 0,-1.99747 0,-2.99621 0,-2.24716 0,-4.49432 0,-6.74149 0,-1.99747 0,-3.99495 0,-5.99243 0,-0.74905 0.12314,-1.50829 0,-2.24716 -1.09589,-6.57532 -0.27554,1.145 -1.49811,-3.74527 0,-3.4099 0.35311,-0.0428 -0.74905,-2.24716 -0.11167,-0.22332 0.11166,-0.52573 0,-0.74905 -0.8281,-1.6562 -0.4649,-0.23245 -1.49811,-0.74905 -0.31583,-0.15792 -0.43323,-0.59114 -0.74905,-0.74906 -0.22333,-0.11166 -0.57251,0.17655 -0.74906,0 -0.17655,-0.17655 0.17655,-0.5725 0,-0.74905 -0.35311,-0.35311 -1.49811,0.49937 -1.49811,0 0,-0.24969 0.49937,0 0.74906,0 C 190.67248,120.77516 190.33624,120.38758 190,120"
     id="path826"
     inkscape:connector-curvature="0"
     inkscape:export-filename="C:\Users\ondra\Desktop\RollIcon.png"
     inkscape:export-xdpi="96"
     inkscape:export-ydpi="96" />
  <path
     style="fill:none;stroke:#fff7ff;stroke-width:3;stroke-linecap:butt;stroke-linejoin:miter;stroke-opacity:1;stroke-miterlimit:4;stroke-dasharray:none"
     d="m 49.810759,121.76041 20,-10 -3.894025,22.13625"
     id="path830"
     inkscape:connector-curvature="0"
     inkscape:export-filename="C:\Users\ondra\Desktop\RollIcon.png"
     inkscape:export-xdpi="96"
     inkscape:export-ydpi="96" />
  <path
     style="fill:none;stroke:#fff7ff;stroke-width:3;stroke-linecap:butt;stroke-linejoin:miter;stroke-opacity:1;stroke-miterlimit:4;stroke-dasharray:none"
     d="m 202.72725,120.49693 -20,-10 3.89402,22.13625"
     id="path830-7"
     inkscape:connector-curvature="0"
     inkscape:export-filename="C:\Users\ondra\Desktop\RollIcon.png"
     inkscape:export-xdpi="96"
     inkscape:export-ydpi="96" />
</svg>
