<?xml version="1.0" encoding="UTF-8" standalone="no"?>
<svg
   xmlns:dc="http://purl.org/dc/elements/1.1/"
   xmlns:cc="http://creativecommons.org/ns#"
   xmlns:rdf="http://www.w3.org/1999/02/22-rdf-syntax-ns#"
   xmlns:svg="http://www.w3.org/2000/svg"
   xmlns="http://www.w3.org/2000/svg"
   xmlns:sodipodi="http://sodipodi.sourceforge.net/DTD/sodipodi-0.dtd"
   xmlns:inkscape="http://www.inkscape.org/namespaces/inkscape"
   id="SVGRoot"
   version="1.1"
   viewBox="0 0 250 250"
   height="250"
   width="250"
   sodipodi:docname="RotateIcon.svg"
   inkscape:version="0.92.3 (2405546, 2018-03-11)">
  <sodipodi:namedview
     pagecolor="#ffffff"
     bordercolor="#666666"
     borderopacity="1"
     objecttolerance="10"
     gridtolerance="10"
     guidetolerance="10"
     inkscape:pageopacity="0"
     inkscape:pageshadow="2"
     inkscape:window-width="1366"
     inkscape:window-height="705"
     id="namedview13"
     showgrid="false"
     inkscape:zoom="1.3350176"
     inkscape:cx="38.660269"
     inkscape:cy="85.237592"
     inkscape:window-x="-8"
     inkscape:window-y="-8"
     inkscape:window-maximized="1"
     inkscape:current-layer="SVGRoot">
    <inkscape:grid
       type="xygrid"
       id="grid824" />
  </sodipodi:namedview>
  <defs
     id="defs3745" />
  <metadata
     id="metadata3748">
    <rdf:RDF>
      <cc:Work
         rdf:about="">
        <dc:format>image/svg+xml</dc:format>
        <dc:type
           rdf:resource="http://purl.org/dc/dcmitype/StillImage" />
        <dc:title />
      </cc:Work>
    </rdf:RDF>
  </metadata>
  <ellipse
     style="fill:none;fill-opacity:1;stroke:#ffffff;stroke-width:1;stroke-linecap:round;stroke-linejoin:round;stroke-miterlimit:4;stroke-dasharray:none;stroke-opacity:1"
     id="path820"
     cx="125.00001"
     cy="125"
     rx="121.87368"
     ry="121.87367"
     inkscape:export-filename="C:\Users\ondra\Desktop\RotateIcon.png"
     inkscape:export-xdpi="96"
     inkscape:export-ydpi="96" />
  <rect
     style="fill:none;fill-opacity:1;stroke:#ff35ff;stroke-width:3;stroke-linecap:round;stroke-linejoin:round;stroke-miterlimit:4;stroke-dasharray:none;stroke-opacity:1"
     id="rect822"
     width="89.999992"
     height="170"
     x="80"
     y="40"
     inkscape:export-filename="C:\Users\ondra\Desktop\RotateIcon.png"
     inkscape:export-xdpi="96"
     inkscape:export-ydpi="96" />
  <path
     style="fill:none;stroke:#ff1dff;stroke-width:3;stroke-linecap:butt;stroke-linejoin:miter;stroke-miterlimit:4;stroke-dasharray:none;stroke-opacity:1"
     d="m 204.01533,96.447343 9.32869,20.321797 10.82818,-19.695877"
     id="path830-7"
     inkscape:connector-curvature="0"
     inkscape:export-filename="C:\Users\ondra\Desktop\RotateIcon.png"
     inkscape:export-xdpi="96"
     inkscape:export-ydpi="96" />
  <path
     style="fill:none;stroke:#ffffff;stroke-width:3;stroke-linecap:butt;stroke-linejoin:miter;stroke-miterlimit:4;stroke-dasharray:none;stroke-opacity:1"
     d="m 45.463508,138.99918 -9.205004,-20.37813 -10.947691,19.6297"
     id="path830-7-4"
     inkscape:connector-curvature="0"
     inkscape:export-filename="C:\Users\ondra\Desktop\RotateIcon.png"
     inkscape:export-xdpi="96"
     inkscape:export-ydpi="96" />
  <path
     style="fill:none;stroke:#ffffff;stroke-width:3;stroke-linecap:butt;stroke-linejoin:miter;stroke-opacity:1;stroke-miterlimit:4;stroke-dasharray:none"
     d="m 182.76913,51.500745 c 0.99873,0.749053 1.99747,1.498107 2.99621,2.247161 0.24969,0.499369 0.35427,1.103322 0.74905,1.498108 0.39479,0.394786 1.05146,0.414066 1.49811,0.749053 0.56497,0.423729 0.94665,1.056939 1.49811,1.498108 0.87577,1.35935 2.58055,1.373622 3.74527,2.247161 0.56497,0.423729 0.93313,1.074379 1.49811,1.498108 0.44665,0.334987 1.05145,0.414067 1.4981,0.749054 0.84746,0.635593 1.49811,1.498107 2.24717,2.247161 0.47972,0.479724 2.52889,2.29524 2.99621,2.996215 0.3097,0.464544 0.43936,1.033564 0.74905,1.498108 0.19587,0.293803 0.49937,0.499369 0.74906,0.749054 0.81529,0.815295 2.43787,2.158697 2.99621,2.996215 0.1385,0.20775 -0.0789,0.512182 0,0.749054 0.17656,0.529661 0.43936,1.033564 0.74906,1.498107 0.19587,0.293803 0.55318,0.455251 0.74905,0.749054 0.3097,0.464543 0.49937,0.998738 0.74905,1.498108 0.24969,0.499369 0.5725,0.968446 0.74906,1.498107 0.079,0.236872 -0.11166,0.525729 0,0.749054 0.15791,0.315829 0.59114,0.433225 0.74905,0.749054 0.11166,0.223324 -0.0789,0.512182 0,0.749054 0.17656,0.529661 0.5725,0.968446 0.74906,1.498107 0.15791,0.473743 -0.22333,1.051458 0,1.498108 0.15791,0.315829 0.59114,0.433225 0.74905,0.749054 0.59689,1.193782 -0.59689,0.304325 0,1.498107 0.15791,0.315829 0.59114,0.433225 0.74905,0.749054 0.11167,0.223325 -0.11166,0.525729 0,0.749054 0.15792,0.315829 0.59114,0.433225 0.74906,0.749054 0.22332,0.446649 -0.35311,1.145 0,1.498107 0.17655,0.176554 0.5725,-0.176554 0.74905,0 0.0241,0.02409 0,2.065496 0,2.247162 0,2.496845 0,4.993691 0,7.490537"
     id="path867"
     inkscape:connector-curvature="0"
     inkscape:export-filename="C:\Users\ondra\Desktop\RotateIcon.png"
     inkscape:export-xdpi="96"
     inkscape:export-ydpi="96" />
  <path
     style="fill:none;stroke:#ffffff;stroke-width:3;stroke-linecap:butt;stroke-linejoin:miter;stroke-opacity:1;stroke-miterlimit:4;stroke-dasharray:none"
     d="m 68.912949,182.58516 c -2.900309,0.16354 -4.361146,-1.29503 -6.741484,-2.24716 -0.733099,-0.29324 -1.514062,-0.45582 -2.247161,-0.74906 -0.51838,-0.20735 -0.956466,-0.61364 -1.498108,-0.74905 -3.428125,-0.85703 0.778838,1.513 -3.745269,-0.74905 -2.284285,-1.14215 1.369978,-0.59383 -2.247161,-1.49811 -0.48446,-0.12112 -1.082608,0.277 -1.498108,0 -0.464543,-0.3097 -0.354268,-1.10332 -0.749054,-1.49811 -0.176553,-0.17655 -0.525729,0.11166 -0.749054,0 -0.631657,-0.31583 -0.910501,-1.10637 -1.498107,-1.49811 -0.464544,-0.30969 -1.103322,-0.35426 -1.498108,-0.74905 -0.176553,-0.17655 0.1385,-0.5413 0,-0.74905 -0.391737,-0.58761 -1.074379,-0.93314 -1.498107,-1.49811 -0.867821,-1.1571 -1.415593,-3.24697 -2.247162,-4.49432 -0.195868,-0.29381 -0.553185,-0.45526 -0.749054,-0.74906 -0.984615,-1.47692 -0.513492,-1.51929 -1.498107,-2.99621 -0.195869,-0.29381 -0.637392,-0.41407 -0.749054,-0.74906 -0.157914,-0.47374 0.121115,-1.01365 0,-1.49811 -0.13541,-0.54164 -0.613643,-0.95646 -0.749054,-1.4981 -0.121115,-0.48446 0.121115,-1.01365 0,-1.49811 -0.13541,-0.54164 -0.613643,-0.95647 -0.749054,-1.49811 -0.121114,-0.48446 0.121115,-1.01365 0,-1.49811 -0.13541,-0.54164 -0.613643,-0.95646 -0.749053,-1.4981 -0.121115,-0.48446 0,-0.99874 0,-1.49811 0,-1.24842 0,-2.49685 0,-3.74527 0,-0.49937 0.121115,-1.01365 0,-1.49811 -0.135411,-0.54164 -0.613644,-0.95646 -0.749054,-1.4981 -0.169763,-0.67906 0,-2.87512 0,-3.74527 0,-3.2459 0,-6.4918 0,-9.7377"
     id="path886"
     inkscape:connector-curvature="0"
     inkscape:export-filename="C:\Users\ondra\Desktop\RotateIcon.png"
     inkscape:export-xdpi="96"
     inkscape:export-ydpi="96" />
</svg>
